<?xml version="1.0" encoding="utf-8"?>
<!-- Generator: Adobe Illustrator 23.0.4, SVG Export Plug-In . SVG Version: 6.00 Build 0)  -->
<svg version="1.1" id="圖層_1" xmlns="http://www.w3.org/2000/svg" xmlns:xlink="http://www.w3.org/1999/xlink" x="0px" y="0px"
	 viewBox="0 0 100 100" style="enable-background:new 0 0 100 100;" xml:space="preserve">
<style type="text/css">
	.st0{fill:#221D6C;}
	.st1{fill:#6C689D;}
	.st2{fill:none;}
</style>
<g id="Group_7" transform="translate(-2417.5 -1022)">
	<path id="Path_186" class="st0" d="M2492.65,1095.14h-50.31c-2.06,0-3.72-1.67-3.72-3.72v-31.93c0-2.06,1.67-3.72,3.72-3.72h8.85
		c0.69,0,1.33-0.34,1.72-0.9l4.12-6.02c0.76-0.87,1.84-1.4,3-1.47h14.92c1.16,0.06,2.24,0.6,3,1.47l4.1,5.98
		c0.4,0.59,1.07,0.94,1.78,0.94h8.82c2.05,0,3.72,1.67,3.72,3.72v31.93C2496.37,1093.48,2494.71,1095.14,2492.65,1095.14z
		 M2467.5,1061.94c-7.2,0.01-13.04,5.85-13.04,13.05c0.01,7.2,5.84,13.04,13.04,13.05c7.2-0.01,13.03-5.85,13.04-13.05
		C2480.53,1067.79,2474.7,1061.95,2467.5,1061.94L2467.5,1061.94z M2483.34,1059.95c-1.03,0-1.86,0.84-1.86,1.86
		c0,1.03,0.83,1.86,1.86,1.86c1.03,0,1.86-0.84,1.86-1.86C2485.2,1060.79,2484.36,1059.96,2483.34,1059.95L2483.34,1059.95z"/>
	<path id="Path" class="st1" d="M2444.21,1050.63h3.73c1.03,0,1.86,0.83,1.86,1.86c0,0,0,0.01,0,0.01v1.86h-7.45v-1.86
		C2442.35,1051.47,2443.18,1050.63,2444.21,1050.63C2444.21,1050.63,2444.21,1050.63,2444.21,1050.63z"/>
	<path id="Path-2" class="st1" d="M2457.26,1074.99c0-5.66,4.59-10.24,10.25-10.24c5.66,0,10.24,4.59,10.24,10.25
		c0,5.66-4.59,10.24-10.25,10.24C2461.84,1085.24,2457.26,1080.66,2457.26,1074.99C2457.26,1075,2457.26,1074.99,2457.26,1074.99z"
		/>
	<path id="Path_187" class="st2" d="M2435.98,1036h63.04c1.92,0,3.48,1.56,3.48,3.48v63.04c0,1.92-1.56,3.48-3.48,3.48h-63.04
		c-1.92,0-3.48-1.56-3.48-3.48v-63.04C2432.5,1037.56,2434.06,1036,2435.98,1036z"/>
</g>
<path class="st1" d="M50,3L50,3C24.15,3,3,24.15,3,50v0c0,25.85,21.15,47,47,47h0c25.85,0,47-21.15,47-47v0C97,24.15,75.85,3,50,3z
	 M92.3,50c0,23.26-19.04,42.3-42.3,42.3h0C26.74,92.3,7.7,73.26,7.7,50v0C7.7,26.73,26.74,7.7,50,7.7h0
	C73.26,7.7,92.3,26.73,92.3,50L92.3,50z"/>
</svg>
